<?xml version="1.0" encoding="UTF-8"?>
<svg id="Layer_1" xmlns="http://www.w3.org/2000/svg" version="1.1" viewBox="0 0 31.9 32">
  <!-- Generator: Adobe Illustrator 29.8.2, SVG Export Plug-In . SVG Version: 2.1.1 Build 3)  -->
  <defs>
    <style>
      .st0 {
        fill: none;
        stroke: #00b7ff;
        stroke-linecap: round;
        stroke-linejoin: round;
        stroke-width: 3px;
      }

      .st1 {
        fill: #d3d3d3;
      }
    </style>
  </defs>
  <path class="st0" d="M12.8,27.8l-1.8-3.5-3.9.7"/>
  <path class="st0" d="M12.8,5.3l-1.8,3.5-3.9-.7"/>
  <path class="st0" d="M13.6,20.7h-.8"/>
  <path class="st0" d="M1.6,16.5h9.1l2.1-4.2"/>
  <path class="st0" d="M4.4,13.7l2.1,2.8-2.1,2.8"/>
  <path class="st0" d="M8.6,29.2l4.2-8.4-2.1-4.2"/>
  <path class="st0" d="M8.6,3.9l4.2,8.4h2.8"/>
  <path class="st1" d="M28.6,17.5V5.8c0-2.4-2-4.4-4.4-4.4s-4.4,2-4.4,4.4v11.7c-1.8,1.3-2.9,3.5-2.9,5.9,0,4,3.3,7.3,7.3,7.3s7.3-3.3,7.3-7.3-1.2-4.5-2.9-5.9ZM22.7,14.6V5.8c0-.8.7-1.5,1.5-1.5s1.5.7,1.5,1.5v1.5h-1.5v1.5h1.5v2.9h-1.5v1.5h1.5v1.5h-3Z"/>
</svg>